<svg width="91" height="23" viewBox="0 0 91 23" fill="none" xmlns="http://www.w3.org/2000/svg">
<path d="M12.4 2.96V17H8.98V11.22H3.66V17H0.24V2.96H3.66V8.46H8.98V2.96H12.4ZM20.9489 17.16C19.8556 17.16 18.8689 16.9267 17.9889 16.46C17.1222 15.9933 16.4356 15.3267 15.9289 14.46C15.4356 13.5933 15.1889 12.58 15.1889 11.42C15.1889 10.2733 15.4422 9.26667 15.9489 8.4C16.4556 7.52 17.1489 6.84667 18.0289 6.38C18.9089 5.91333 19.8956 5.68 20.9889 5.68C22.0822 5.68 23.0689 5.91333 23.9489 6.38C24.8289 6.84667 25.5222 7.52 26.0289 8.4C26.5356 9.26667 26.7889 10.2733 26.7889 11.42C26.7889 12.5667 26.5289 13.58 26.0089 14.46C25.5022 15.3267 24.8022 15.9933 23.9089 16.46C23.0289 16.9267 22.0422 17.16 20.9489 17.16ZM20.9489 14.2C21.6022 14.2 22.1556 13.96 22.6089 13.48C23.0756 13 23.3089 12.3133 23.3089 11.42C23.3089 10.5267 23.0822 9.84 22.6289 9.36C22.1889 8.88 21.6422 8.64 20.9889 8.64C20.3222 8.64 19.7689 8.88 19.3289 9.36C18.8889 9.82667 18.6689 10.5133 18.6689 11.42C18.6689 12.3133 18.8822 13 19.3089 13.48C19.7489 13.96 20.2956 14.2 20.9489 14.2ZM34.1433 17.16C33.1699 17.16 32.3033 16.9933 31.5433 16.66C30.7833 16.3267 30.1833 15.8733 29.7433 15.3C29.3033 14.7133 29.0566 14.06 29.0033 13.34H32.3833C32.4233 13.7267 32.6033 14.04 32.9233 14.28C33.2433 14.52 33.6366 14.64 34.1033 14.64C34.5299 14.64 34.8566 14.56 35.0833 14.4C35.3233 14.2267 35.4433 14.0067 35.4433 13.74C35.4433 13.42 35.2766 13.1867 34.9433 13.04C34.6099 12.88 34.0699 12.7067 33.3233 12.52C32.5233 12.3333 31.8566 12.14 31.3233 11.94C30.7899 11.7267 30.3299 11.4 29.9433 10.96C29.5566 10.5067 29.3633 9.9 29.3633 9.14C29.3633 8.5 29.5366 7.92 29.8833 7.4C30.2433 6.86667 30.7633 6.44667 31.4433 6.14C32.1366 5.83333 32.9566 5.68 33.9033 5.68C35.3033 5.68 36.4033 6.02667 37.2033 6.72C38.0166 7.41333 38.4833 8.33333 38.6033 9.48H35.4433C35.3899 9.09333 35.2166 8.78667 34.9233 8.56C34.6433 8.33333 34.2699 8.22 33.8033 8.22C33.4033 8.22 33.0966 8.3 32.8833 8.46C32.6699 8.60667 32.5633 8.81333 32.5633 9.08C32.5633 9.4 32.7299 9.64 33.0633 9.8C33.4099 9.96 33.9433 10.12 34.6633 10.28C35.4899 10.4933 36.1633 10.7067 36.6833 10.92C37.2033 11.12 37.6566 11.4533 38.0433 11.92C38.4433 12.3733 38.6499 12.9867 38.6633 13.76C38.6633 14.4133 38.4766 15 38.1033 15.52C37.7433 16.0267 37.2166 16.4267 36.5233 16.72C35.8433 17.0133 35.0499 17.16 34.1433 17.16Z" fill="#0099FF"/>
<path d="M45.1756 7.42C45.509 6.9 45.969 6.48 46.5556 6.16C47.1423 5.84 47.829 5.68 48.6156 5.68C49.5356 5.68 50.369 5.91333 51.1156 6.38C51.8623 6.84667 52.449 7.51333 52.8756 8.38C53.3156 9.24667 53.5356 10.2533 53.5356 11.4C53.5356 12.5467 53.3156 13.56 52.8756 14.44C52.449 15.3067 51.8623 15.98 51.1156 16.46C50.369 16.9267 49.5356 17.16 48.6156 17.16C47.8423 17.16 47.1556 17 46.5556 16.68C45.969 16.36 45.509 15.9467 45.1756 15.44V22.32H41.7556V5.84H45.1756V7.42ZM50.0556 11.4C50.0556 10.5467 49.8156 9.88 49.3356 9.4C48.869 8.90667 48.289 8.66 47.5956 8.66C46.9156 8.66 46.3356 8.90667 45.8556 9.4C45.389 9.89333 45.1556 10.5667 45.1556 11.42C45.1556 12.2733 45.389 12.9467 45.8556 13.44C46.3356 13.9333 46.9156 14.18 47.5956 14.18C48.2756 14.18 48.8556 13.9333 49.3356 13.44C49.8156 12.9333 50.0556 12.2533 50.0556 11.4ZM58.0498 4.68C57.4498 4.68 56.9565 4.50667 56.5698 4.16C56.1965 3.8 56.0098 3.36 56.0098 2.84C56.0098 2.30667 56.1965 1.86667 56.5698 1.52C56.9565 1.16 57.4498 0.979999 58.0498 0.979999C58.6365 0.979999 59.1165 1.16 59.4898 1.52C59.8765 1.86667 60.0698 2.30667 60.0698 2.84C60.0698 3.36 59.8765 3.8 59.4898 4.16C59.1165 4.50667 58.6365 4.68 58.0498 4.68ZM59.7498 5.84V17H56.3298V5.84H59.7498ZM69.4483 14.1V17H67.7083C66.4683 17 65.5016 16.7 64.8083 16.1C64.1149 15.4867 63.7683 14.4933 63.7683 13.12V8.68H62.4083V5.84H63.7683V3.12H67.1883V5.84H69.4283V8.68H67.1883V13.16C67.1883 13.4933 67.2683 13.7333 67.4283 13.88C67.5883 14.0267 67.8549 14.1 68.2283 14.1H69.4483ZM71.6733 11.4C71.6733 10.2533 71.8866 9.24667 72.3133 8.38C72.7533 7.51333 73.3466 6.84667 74.0933 6.38C74.8399 5.91333 75.6733 5.68 76.5933 5.68C77.3799 5.68 78.0666 5.84 78.6533 6.16C79.2533 6.48 79.7133 6.9 80.0333 7.42V5.84H83.4533V17H80.0333V15.42C79.6999 15.94 79.2333 16.36 78.6333 16.68C78.0466 17 77.3599 17.16 76.5733 17.16C75.6666 17.16 74.8399 16.9267 74.0933 16.46C73.3466 15.98 72.7533 15.3067 72.3133 14.44C71.8866 13.56 71.6733 12.5467 71.6733 11.4ZM80.0333 11.42C80.0333 10.5667 79.7933 9.89333 79.3133 9.4C78.8466 8.90667 78.2733 8.66 77.5933 8.66C76.9133 8.66 76.3333 8.90667 75.8533 9.4C75.3866 9.88 75.1533 10.5467 75.1533 11.4C75.1533 12.2533 75.3866 12.9333 75.8533 13.44C76.3333 13.9333 76.9133 14.18 77.5933 14.18C78.2733 14.18 78.8466 13.9333 79.3133 13.44C79.7933 12.9467 80.0333 12.2733 80.0333 11.42ZM90.3475 2.2V17H86.9275V2.2H90.3475Z" fill="black"/>
</svg>
